<svg xmlns="http://www.w3.org/2000/svg" version="1.1" xmlns:xlink="http://www.w3.org/1999/xlink" width="1000" height="1000"><g clip-path="url(#SvgjsClipPath1003)"><rect width="1000" height="1000" fill="#ffffff"></rect><g transform="matrix(3.5,0,0,3.5,150,150)"><svg xmlns="http://www.w3.org/2000/svg" version="1.1" xmlns:xlink="http://www.w3.org/1999/xlink" width="200" height="200"><svg xmlns="http://www.w3.org/2000/svg" version="1.1" xmlns:xlink="http://www.w3.org/1999/xlink" viewBox="0 0 200 200"><rect width="200" height="200" fill="url('#gradient')"></rect><defs><linearGradient id="gradient" gradientTransform="rotate(45 0.5 0.5)"><stop offset="0%" stop-color="#dee90b"></stop><stop offset="100%" stop-color="#dee90b"></stop></linearGradient><clipPath id="SvgjsClipPath1003"><rect width="1000" height="1000" x="0" y="0" rx="350" ry="350"></rect></clipPath></defs><g><g fill="#1b3855" transform="matrix(8.645403377110695,0,0,8.645403377110695,2.6529933330489257,164.84052532833022)" stroke="#0e5278" stroke-width="0.2"><path d="M4.14-15L4.14-9.43Q5.20-10.76 6.84-10.76L6.84-10.76Q8.58-10.76 9.47-9.73Q10.36-8.69 10.38-6.67L10.38-6.67L10.38 0L7.08 0L7.08-6.59Q7.08-7.43 6.74-7.83Q6.40-8.22 5.58-8.22L5.58-8.22Q4.56-8.22 4.14-7.58L4.14-7.58L4.14 0L0.85 0L0.85-15L4.14-15ZM15.43-15L15.43-9.43Q16.48-10.76 18.13-10.76L18.13-10.76Q19.87-10.76 20.76-9.73Q21.65-8.69 21.67-6.67L21.67-6.67L21.67 0L18.37 0L18.37-6.59Q18.37-7.43 18.03-7.83Q17.69-8.22 16.87-8.22L16.87-8.22Q15.85-8.22 15.43-7.58L15.43-7.58L15.43 0L12.14 0L12.14-15L15.43-15Z"></path></g></g></svg></svg></g></g></svg>